<svg width="28" height="20" viewBox="0 0 28 20" fill="none" xmlns="http://www.w3.org/2000/svg">
<path d="M26 0.625H2C1.46957 0.625 0.960859 0.822544 0.585786 1.17417C0.210714 1.52581 0 2.00272 0 2.5V17.5C0 17.9973 0.210714 18.4742 0.585786 18.8258C0.960859 19.1775 1.46957 19.375 2 19.375H26C26.5304 19.375 27.0391 19.1775 27.4142 18.8258C27.7893 18.4742 28 17.9973 28 17.5V2.5C28 2.00272 27.7893 1.52581 27.4142 1.17417C27.0391 0.822544 26.5304 0.625 26 0.625V0.625ZM23.8 2.5L14 8.85625L4.2 2.5H23.8ZM2 17.5V3.35312L13.43 10.7687C13.5974 10.8776 13.7963 10.936 14 10.936C14.2037 10.936 14.4026 10.8776 14.57 10.7687L26 3.35312V17.5H2Z" fill="black"/>
</svg>
