<svg width="44" height="40" viewBox="0 0 44 40" fill="none" xmlns="http://www.w3.org/2000/svg">
<g id="Group 124">
<path id="V" d="M18.7289 38.3333C17.6355 36.0133 16.5555 33.5999 15.4889 31.0933C14.4222 28.5866 13.4089 26.1066 12.4489 23.6533C11.4889 21.1999 10.5955 18.8533 9.76886 16.6133C8.96886 14.3733 8.27553 12.3733 7.68886 10.6133H14.5689C15.1022 12.2133 15.6755 13.9466 16.2889 15.8133C16.9289 17.6533 17.5689 19.4933 18.2089 21.3333C18.8755 23.1733 19.5155 24.9333 20.1289 26.6133C20.7422 28.2933 21.3155 29.7466 21.8489 30.9733C22.3555 29.7466 22.9155 28.2933 23.5289 26.6133C24.1689 24.9333 24.8089 23.1733 25.4489 21.3333C26.1155 19.4933 26.7555 17.6533 27.3689 15.8133C28.0089 13.9466 28.5955 12.2133 29.1289 10.6133H35.7689C35.1555 12.3733 34.4489 14.3733 33.6489 16.6133C32.8489 18.8533 31.9689 21.1999 31.0089 23.6533C30.0489 26.1066 29.0355 28.5866 27.9689 31.0933C26.9022 33.5999 25.8222 36.0133 24.7289 38.3333H18.7289Z" fill="#002244"/>
<ellipse id="Ellipse 16" cx="22.3096" cy="5.5" rx="7.04512" ry="5.5" fill="#69BE28"/>
</g>
</svg>
